<?xml version="1.0" encoding="UTF-8"?>
<svg version="1.1" xmlns="http://www.w3.org/2000/svg" width="1024" height="1024">
<path d="M0 0 C337.92 0 675.84 0 1024 0 C1024 337.92 1024 675.84 1024 1024 C686.08 1024 348.16 1024 0 1024 C0 686.08 0 348.16 0 0 Z " fill="#110A14" transform="translate(0,0)"/>
<path d="M0 0 C0.65140475 -0.00320648 1.3028095 -0.00641296 1.97395378 -0.0097166 C4.17810251 -0.0180824 6.38198412 -0.01206948 8.58613777 -0.00622082 C10.1740344 -0.00923861 11.76192958 -0.0131262 13.34982216 -0.01781338 C17.73052663 -0.02815213 22.11114979 -0.0258966 26.4918611 -0.02163279 C31.21073475 -0.01917582 35.92958828 -0.02816745 40.64845467 -0.03567028 C49.90462888 -0.04845307 59.16077414 -0.05020612 68.41695569 -0.04787002 C75.94725158 -0.04608885 83.47753865 -0.0478322 91.00783348 -0.05209446 C92.0786282 -0.05268965 93.14942293 -0.05328484 94.25266597 -0.05389806 C96.42802428 -0.05510982 98.60338259 -0.05632395 100.7787409 -0.05754044 C121.20945723 -0.06843203 141.64015708 -0.06624723 162.07087435 -0.06015559 C180.73258521 -0.05499831 199.39424369 -0.0662075 218.05594419 -0.08525381 C237.22563939 -0.10466794 256.39530987 -0.11288111 275.56501496 -0.10913056 C286.32360817 -0.10722222 297.08215693 -0.10966914 307.84074211 -0.1238451 C317.0115545 -0.13580627 326.18229517 -0.13711186 335.35310863 -0.12505493 C340.02591169 -0.11919617 344.69858387 -0.11798234 349.37137794 -0.13005733 C392.66714788 -0.23435675 392.66714788 -0.23435675 412.75023079 6.25447559 C414.41312141 6.75914356 414.41312141 6.75914356 416.10960579 7.27400684 C440.3793811 14.92871446 460.53698349 26.63864206 479.20726204 43.95760059 C480.88285029 45.47103514 482.60622118 46.93340845 484.37523079 48.33650684 C496.40133357 58.04837603 505.28228024 72.90810952 512.75023079 86.25447559 C513.35609016 87.31666309 513.96194954 88.37885059 514.58616829 89.47322559 C525.20675702 109.27269418 531.04526302 131.85376507 531.75023079 154.25447559 C531.788097 155.18630665 531.82596321 156.1181377 531.86497688 157.07820606 C532.77725584 181.84061329 529.29073621 205.38399651 519.00023079 228.06697559 C518.48045662 229.21444263 518.48045662 229.21444263 517.95018196 230.38509083 C516.89750814 232.68172543 515.82846046 234.96973974 514.75023079 237.25447559 C514.28640999 238.2435088 514.28640999 238.2435088 513.81321907 239.25252247 C505.2606238 257.18105642 492.03409605 273.62502935 476.75023079 286.25447559 C475.9523011 286.94025684 475.15437141 287.62603809 474.33226204 288.33260059 C436.41124114 320.37222239 392.12452632 328.59142689 343.81983209 328.55605817 C340.87033787 328.55497154 337.92086436 328.55991352 334.97137469 328.56466359 C328.00417024 328.57566556 321.03701975 328.57624762 314.06981087 328.57014942 C306.93624347 328.56410093 299.80287287 328.57646437 292.669339 328.59771949 C286.48781692 328.61544518 280.3063569 328.62132021 274.1248104 328.61808175 C270.45747946 328.61628806 266.79028937 328.61871075 263.12298203 328.63279629 C224.87268868 328.76706119 224.87268868 328.76706119 207.75023079 320.25447559 C206.41991829 319.60865528 206.41991829 319.60865528 205.06273079 318.94978809 C189.84562636 311.12005704 178.1145545 300.19330249 166.21116829 288.14119434 C164.67215172 286.59724087 163.13231038 285.05410914 161.59169197 283.51175404 C158.39053974 280.30302134 155.1959049 277.08799934 152.00657845 273.8675127 C147.92439722 269.74550882 143.83129539 265.63457214 139.7339859 261.52761078 C135.80617314 257.5898259 131.88331487 253.64712175 127.96116829 249.70369434 C127.2179369 248.9570672 126.47470551 248.21044006 125.70895195 247.44118786 C123.60589884 245.32653117 121.50634925 243.20846173 119.40794563 241.08919239 C118.78976967 240.46832752 118.1715937 239.84746265 117.53468513 239.2077837 C114.39182292 236.0257611 111.50275869 232.78832895 108.75023079 229.25447559 C106.22073998 226.66012604 103.6766483 224.19070411 100.93773079 221.81697559 C98.75023079 219.25447559 98.75023079 219.25447559 98.25023079 216.12947559 C98.80833257 212.92039038 99.22988193 212.19426211 101.75023079 210.25447559 C103.7942313 209.87776941 103.7942313 209.87776941 106.19042969 209.87530136 C107.10451878 209.86707822 108.01860788 209.85885507 108.96039665 209.85038275 C109.96610997 209.85659456 110.97182329 209.86280638 112.00801277 209.86920643 C113.07537796 209.86397073 114.14274315 209.85873504 115.24245274 209.85334069 C118.83744388 209.83931499 122.43207937 209.84669724 126.02708626 209.85384083 C128.59753935 209.84810156 131.16798974 209.84102014 133.73843575 209.83269215 C139.28450776 209.81669592 144.83050669 209.81144336 150.37660027 209.81322002 C158.40950202 209.81560311 166.44228708 209.7996149 174.47515835 209.77876747 C187.52615054 209.74521299 200.57713229 209.72357246 213.62816048 209.71077442 C214.40958562 209.71000493 215.19101077 209.70923544 215.99611546 209.70844264 C219.16149144 209.70534096 222.32686744 209.70225814 225.49224346 209.69920259 C234.18436163 209.69068915 242.87647613 209.67978401 251.56859016 209.66780567 C252.7347523 209.66620364 252.7347523 209.66620364 253.92447327 209.66456925 C266.91413977 209.64643996 279.90378167 209.62042223 292.89342415 209.58967453 C300.89878673 209.57117125 308.90409387 209.56020792 316.90947814 209.55915261 C323.05671995 209.55791272 329.20390761 209.54680228 335.35113144 209.53221226 C337.86448447 209.52794722 340.37784596 209.52706263 342.89120102 209.5298872 C373.64619034 209.86955416 373.64619034 209.86955416 399.56273079 194.72322559 C407.79576291 185.43166077 411.4697341 175.62019284 412.12523079 163.19197559 C410.92925529 150.63423285 407.10210633 140.76042848 398.75023079 131.25447559 C396.14789483 129.2973563 396.14789483 129.2973563 393.31273079 127.62947559 C392.38589485 127.05970997 391.45905891 126.48994434 390.50413704 125.90291309 C389.59534798 125.35892872 388.68655891 124.81494434 387.75023079 124.25447559 C386.96763547 123.75980573 386.18504015 123.26513586 385.37872982 122.755476 C373.87488197 116.18622105 359.4584338 117.84086101 346.70848274 117.88557911 C344.27127094 117.88310839 341.83406021 117.87926723 339.39685249 117.87416553 C334.16524058 117.86585248 328.93370778 117.86630704 323.70209885 117.87435055 C316.11975732 117.88564001 308.5375395 117.87648931 300.95520868 117.86178874 C288.62589852 117.83806338 276.2966037 117.82465907 263.9672718 117.8206377 C263.23086341 117.82039283 262.49445501 117.82014797 261.73573121 117.81989568 C253.52667657 117.81735172 245.31762312 117.81678214 237.10856819 117.81783009 C234.13406054 117.81816312 231.1595529 117.81844851 228.18504524 117.81868458 C227.45106088 117.81874737 226.71707653 117.81881015 225.96085022 117.81887484 C213.68051012 117.81948165 201.40024062 117.80451838 189.11992997 117.77785152 C181.56611375 117.76212894 174.01252693 117.75970103 166.45870861 117.77498554 C160.65704102 117.78564933 154.85554677 117.77566572 149.05390167 117.75842762 C146.688961 117.75472412 144.32399785 117.75774292 141.95907784 117.76829815 C109.01316854 117.90544753 87.37094436 107.6580252 63.86904049 84.48905563 C60.79550557 81.43955073 57.7347949 78.37736079 54.67601204 75.31306934 C53.33958419 73.97731693 52.00300808 72.64171283 50.66629219 71.30624866 C47.88201802 68.52343918 45.09953584 65.73885387 42.31834602 62.95296192 C38.77142872 59.40033693 35.22002451 55.85223657 31.66726589 52.30545425 C28.91236938 49.55418718 26.15987857 46.80052323 23.40808868 44.04614925 C22.1000167 42.73741516 20.79121529 41.42940966 19.48163986 40.12217999 C13.0228875 33.67246657 6.6328237 27.24311587 0.75023079 20.25447559 C-1.37741267 17.87733649 -3.51085977 15.50569957 -5.64820671 13.13728809 C-8.67502746 9.5789281 -8.49645318 6.85924302 -8.24976921 2.25447559 C-5.48187371 -0.51341991 -3.87937439 0.00288124 0 0 Z " fill="#EE4FD9" transform="translate(268.24976921081543,245.7455244064331)"/>
<path d="M0 0 C5.47932633 0.53414816 9.50243369 2.53368409 14.25 5.125 C15.00724365 5.53314941 15.7644873 5.94129883 16.54467773 6.36181641 C21.36141095 8.99794222 25.93393037 11.80753291 30.359375 15.06640625 C33.10694986 17.07831388 35.90863009 18.98937855 38.72802734 20.8984375 C46.1025322 25.90114681 53.2251264 31.13556523 60.23828125 36.6328125 C62.17713601 38.13746697 64.13344543 39.61715695 66.09375 41.09375 C74.75942727 47.63030923 83.13964386 54.38127595 91.30712891 61.52929688 C92.99824816 62.99847806 94.70470084 64.44735913 96.41796875 65.890625 C104.9026647 73.04973743 113.01643195 80.54920695 121.07226562 88.18554688 C122.81063199 89.82176 124.56353952 91.43904741 126.328125 93.046875 C134.7159815 100.70932194 142.84064191 108.64766035 150.91958618 116.63348389 C152.2043386 117.9008924 153.49247358 119.16488292 154.78427124 120.42510986 C174.19054547 139.38183863 186.10783027 159.93206164 186.48276317 187.63325334 C186.53643732 193.38798969 186.53027863 199.14184731 186.50437045 204.89671564 C186.49036271 208.78693019 186.49699663 212.67712152 186.50050354 216.56735229 C186.50319018 223.08469176 186.48985332 229.60184539 186.46655273 236.11914062 C186.43984064 243.64253248 186.43823699 251.16561619 186.4499411 258.68903935 C186.46072675 265.95809612 186.45453286 273.22704197 186.44038582 280.49608994 C186.43464406 283.5780997 186.43469409 286.66002782 186.43945122 289.74203873 C186.44423167 293.36530771 186.4340757 296.98823959 186.41249657 300.61144447 C186.40430683 302.5686698 186.41076601 304.52593936 186.41769409 306.48316956 C186.3256452 317.37072319 186.3256452 317.37072319 183 322 C179.48289143 323.75855428 175.75131871 322.77009384 172 322 C169.00631874 320.91472137 166.28182258 319.47983622 163.5 317.9375 C162.29827148 317.2863623 162.29827148 317.2863623 161.07226562 316.62207031 C142.80306826 306.51644368 125.54144026 294.70976307 109 282 C108.35498535 281.50661133 107.7099707 281.01322266 107.04541016 280.50488281 C99.54559031 274.75025479 92.2705137 268.75924844 85.0859375 262.6171875 C82.24394435 260.19308244 79.34709935 257.84268601 76.4375 255.5 C71.44831582 251.44174232 66.72329385 247.15484434 62.01953125 242.7734375 C59.75353954 240.67135879 57.44164455 238.62981971 55.109375 236.6015625 C23.48632003 209.03850216 23.48632003 209.03850216 12 193 C11.09894531 191.76636719 11.09894531 191.76636719 10.1796875 190.5078125 C3.31888332 180.49876051 -1.01093588 168.9533551 -2.67578125 156.94140625 C-2.80685955 154.99948289 -2.80685955 154.99948289 -4 154 C-4.10535374 152.08786335 -4.1396723 150.17179703 -4.14717102 148.2567749 C-4.15432632 147.00891708 -4.16148163 145.76105927 -4.16885376 144.47538757 C-4.17169433 143.07962061 -4.17440603 141.68385338 -4.17700195 140.28808594 C-4.18326376 138.82808774 -4.18991031 137.36809114 -4.19691467 135.90809631 C-4.21435271 131.9306795 -4.22488439 127.95327473 -4.2331202 123.97582912 C-4.23826521 121.49211606 -4.24434122 119.00840676 -4.25063133 116.52469635 C-4.26969261 108.75752594 -4.28392083 100.99036508 -4.2922433 93.22317576 C-4.30201532 84.25054403 -4.32832984 75.27815902 -4.36874419 66.30561423 C-4.39888927 59.37563482 -4.4137107 52.44572618 -4.41702431 45.51568246 C-4.419377 41.37443632 -4.42836506 37.23345346 -4.45348549 33.09227753 C-4.47674281 29.19507649 -4.48100912 25.29831251 -4.47072411 21.4010601 C-4.47022803 19.9711938 -4.47656974 18.54130617 -4.49028015 17.11150551 C-4.50796164 15.15813674 -4.4985198 13.20457876 -4.48774719 11.25115967 C-4.49013555 10.15829021 -4.4925239 9.06542076 -4.49498463 7.93943405 C-3.88811005 4.33554881 -2.463474 2.63831949 0 0 Z " fill="#E556E7" transform="translate(262,461)"/>
<path d="M0 0 C5.75 0.75 5.75 0.75 8 3 C5.03 2.505 5.03 2.505 2 2 C-2.71167592 7.47999143 -2.51359691 12.16841916 -2.35546875 19.1953125 C-2.34707474 20.33611267 -2.33868073 21.47691284 -2.33003235 22.65228271 C-2.31005047 25.15496902 -2.2811832 27.6575961 -2.24462891 30.16009521 C-2.15596435 36.31366169 -2.12168012 42.46745312 -2.08705521 48.62150955 C-2.07843322 50.10364854 -2.069061 51.58578333 -2.05897141 53.06791306 C-1.92370281 73.05076091 -2.1972092 93.02901261 -2.46222305 113.00984955 C-2.51260784 116.83122746 -2.56113244 120.65262815 -2.6096983 124.47402954 C-2.73489063 134.3160877 -2.86519832 144.1580688 -3 154 C-3.33 154 -3.66 154 -4 154 C-4.09342733 134.65921037 -4.16397134 115.31846652 -4.20724869 95.97749805 C-4.22787692 86.9972104 -4.25600247 78.01706292 -4.30175781 69.03686523 C-4.34161763 61.21002681 -4.36743091 53.3832899 -4.37635398 45.55635279 C-4.3815702 41.41172163 -4.39383544 37.2673809 -4.42292023 33.12284279 C-4.45007597 29.22157153 -4.45844478 25.32071028 -4.45243073 21.41935349 C-4.4535309 19.98786758 -4.46148422 18.55636792 -4.4768219 17.12496376 C-4.49674796 15.16937312 -4.48954871 13.21356234 -4.48101807 11.25788879 C-4.48470524 10.16372052 -4.48839241 9.06955225 -4.49219131 7.94222736 C-3.88872502 4.33481903 -2.4658785 2.63980438 0 0 Z " fill="#D53AB5" transform="translate(262,461)"/>
<path d="M0 0 C5.75 0.75 5.75 0.75 8 3 C5.03 2.505 5.03 2.505 2 2 C-1.48748906 5.7578606 -2.50867683 8.065349 -2.609375 13.17578125 C-2.64160156 14.33271484 -2.67382812 15.48964844 -2.70703125 16.68164062 C-2.72121094 17.87982422 -2.73539062 19.07800781 -2.75 20.3125 C-2.77964844 21.53001953 -2.80929687 22.74753906 -2.83984375 24.00195312 C-2.91041823 27.00136833 -2.96317864 30.0000117 -3 33 C-3.33 33 -3.66 33 -4 33 C-4.11625936 28.43771459 -4.18727408 23.87581072 -4.25 19.3125 C-4.28351563 18.01892578 -4.31703125 16.72535156 -4.3515625 15.39257812 C-4.36445313 14.14541016 -4.37734375 12.89824219 -4.390625 11.61328125 C-4.41157227 10.46641846 -4.43251953 9.31955566 -4.45410156 8.13793945 C-3.90924837 4.37288669 -2.58178992 2.72695977 0 0 Z " fill="#C92B92" transform="translate(262,461)"/>
<path d="M0 0 C1.47583955 0.0001591 2.95168467 0.00585225 4.42749023 0.01586914 C5.20293686 0.01728409 5.97838348 0.01869904 6.77732849 0.02015686 C9.26361893 0.02577194 11.74982059 0.03832693 14.23608398 0.05102539 C15.91772331 0.05603845 17.59936405 0.06060169 19.28100586 0.06469727 C23.41189965 0.07574626 27.54272674 0.09302094 31.67358398 0.11352539 C31.67358398 0.44352539 31.67358398 0.77352539 31.67358398 1.11352539 C30.20550293 1.13539917 30.20550293 1.13539917 28.70776367 1.15771484 C25.06953772 1.21577645 21.43192563 1.29300799 17.79418945 1.37597656 C16.22104877 1.40918911 14.64778997 1.43723256 13.07446289 1.45996094 C10.81011727 1.49357567 8.54685033 1.54589163 6.28295898 1.60180664 C5.58176941 1.60819656 4.88057983 1.61458649 4.15814209 1.62117004 C0.06592091 1.74382934 -2.34221427 2.23972573 -5.32641602 5.11352539 C-4.20414793 0.14348101 -4.20414793 0.14348101 0 0 Z " fill="#EE1574" transform="translate(265.326416015625,245.886474609375)"/>
</svg>
