<?xml version="1.0" encoding="UTF-8"?>
<svg version="1.1" xmlns="http://www.w3.org/2000/svg" width="1536" height="496">
<path d="M0 0 C506.88 0 1013.76 0 1536 0 C1536 163.68 1536 327.36 1536 496 C1029.12 496 522.24 496 0 496 C0 332.32 0 168.64 0 0 Z " fill="#1C0B1B" transform="translate(0,0)"/>
<path d="M0 0 C1.73062627 -0.01564648 1.73062627 -0.01564648 3.49621469 -0.03160906 C4.76456035 -0.02268617 6.03290601 -0.01376328 7.33968639 -0.00457001 C8.700312 -0.00917803 10.06093263 -0.01553028 11.42154282 -0.02347898 C15.16496036 -0.04021341 18.90797122 -0.03190713 22.65139043 -0.01953411 C26.68795423 -0.01050098 30.72444703 -0.02444581 34.76099682 -0.0354538 C42.67573812 -0.05327141 50.59032794 -0.04938199 58.50507525 -0.03780323 C64.94739671 -0.02876979 71.38967571 -0.02754457 77.83200169 -0.0318985 C78.74901439 -0.03251143 79.6660271 -0.03312436 80.61082807 -0.03375587 C82.47397113 -0.03503482 84.33711417 -0.03633168 86.2002572 -0.03764623 C103.69200899 -0.04906464 121.18367707 -0.03592492 138.67541512 -0.01444477 C153.64469909 0.00337069 168.61385874 0.00037057 183.58314037 -0.01811981 C200.9828285 -0.03960239 218.3824428 -0.04790626 235.78214234 -0.03567076 C237.64424144 -0.03439667 239.50634055 -0.03313919 241.36843967 -0.0318985 C242.28447206 -0.0312814 243.20050445 -0.03066429 244.1442954 -0.03002849 C250.5601144 -0.02659341 256.97588619 -0.03236512 263.39169788 -0.04181671 C271.23903514 -0.05312291 279.08621271 -0.04982033 286.93353204 -0.02869374 C290.92829897 -0.01828901 294.92280128 -0.01387596 298.91756535 -0.02729034 C328.92747514 -0.11961404 357.76427859 2.73847098 384.37147045 17.50336456 C385.44139233 18.08215363 386.5113142 18.66094269 387.61365795 19.25727081 C420.5367001 37.68562298 440.59062958 65.45403947 450.8182478 100.99726105 C452.61129972 109.11980209 452.55769315 117.27268291 452.55677319 125.54682159 C452.55895153 127.73435934 452.57713342 129.92138491 452.59607983 132.10883331 C452.63008904 140.41173003 452.13583211 148.36098555 450.37147045 156.50336456 C450.21573559 157.23345734 450.06000072 157.96355011 449.89954662 158.71576691 C444.99370945 179.89807591 433.1571096 197.8735209 418.37147045 213.50336456 C417.55033764 214.40055206 416.72920483 215.29773956 415.8831892 216.22211456 C401.78640009 231.09161656 383.35115563 240.89732424 364.05115795 247.27680206 C361.98252619 247.96634598 359.92276749 248.69311812 357.9144392 249.54242706 C354.28810983 250.91274508 350.59520029 251.69630808 346.80897045 252.50336456 C346.09289623 252.66836456 345.37682201 252.83336456 344.63904858 253.00336456 C326.50222681 256.88874228 307.91761149 256.81606678 289.46522045 256.80414581 C286.92180341 256.80804382 284.37838702 256.81238072 281.83497143 256.81713104 C276.54373584 256.82453472 271.25254955 256.82448454 265.9613142 256.81903839 C259.87850331 256.81297349 253.79592225 256.8253999 247.7131505 256.84660846 C241.80353513 256.86643988 235.89399023 256.86938885 229.98433971 256.86587334 C227.4934386 256.86638384 225.00253357 256.87157029 222.51165295 256.88168526 C219.02920006 256.89410775 215.5472751 256.88722559 212.06482983 256.87567902 C211.05470837 256.88332275 210.04458691 256.89096649 209.00385571 256.89884186 C191.06593708 256.76827145 178.85487417 248.77150571 165.20203686 237.94379425 C161.78863107 235.25786545 158.32609945 232.63590271 154.87147045 230.00336456 C153.41682369 228.89167278 151.96239385 227.77969711 150.5081892 226.66742706 C149.8074226 226.13149933 149.106656 225.59557159 148.38465405 225.04340363 C140.41771201 218.94887654 132.48291076 212.81774829 124.60340405 206.6105423 C119.09555803 202.27596073 113.54307967 198.00104679 107.98035717 193.73725128 C104.74051384 191.25255201 101.50557792 188.76146286 98.27039623 186.27069855 C95.4285664 184.08337953 92.58379289 181.90003479 89.7347517 179.72211456 C89.14049389 179.2670755 88.54623608 178.81203644 87.93397045 178.34320831 C86.79295603 177.46961914 85.65106959 176.5971674 84.5081892 175.72602081 C82.34409285 174.06760527 80.30199352 172.43388763 78.37147045 170.50336456 C77.7942728 163.2306742 77.7942728 163.2306742 79.64169216 160.90279585 C81.75173524 159.19572141 82.72649467 159.13143434 85.41120434 159.1398077 C86.64833565 159.13269808 86.64833565 159.13269808 87.91045952 159.12544483 C89.26932888 159.14059898 89.26932888 159.14059898 90.65565014 159.15605927 C92.09955608 159.15433105 92.09955608 159.15433105 93.57263184 159.15256792 C96.81305734 159.15230885 100.05299301 159.17353265 103.29334545 159.19452667 C105.61088397 159.19864529 107.92842523 159.2014157 110.24596691 159.20293427 C115.24533549 159.20903971 120.24455603 159.22458287 125.24387646 159.24730492 C132.48402902 159.28001598 139.72412011 159.29529937 146.96433628 159.30515964 C158.72654938 159.32149305 170.48870017 159.34975563 182.25086498 159.38690948 C183.30715566 159.39024117 183.30715566 159.39024117 184.38478553 159.39364017 C187.23740389 159.40265416 190.09002217 159.41169004 192.94264036 159.42075631 C200.77812404 159.44554528 208.6136136 159.46803412 216.44910717 159.48944855 C217.15001752 159.49136752 217.85092786 159.4932865 218.57307792 159.49526363 C230.28127329 159.52702992 241.98947459 159.55072734 253.69769764 159.56953055 C261.5549796 159.58290228 269.41213869 159.60676839 277.26936531 159.63893306 C282.16791194 159.65708398 287.06645094 159.66694991 291.96502399 159.67469978 C294.230898 159.68002591 296.49676702 159.68881823 298.76261234 159.70140076 C301.86560746 159.71817563 304.96838682 159.72238831 308.07142162 159.72368622 C308.95948875 159.73155826 309.84755589 159.7394303 310.76253414 159.74754089 C322.38584279 159.71823575 332.3444377 157.82013809 341.1878767 149.87055206 C342.77221588 148.16311886 344.08183564 146.44184688 345.37147045 144.50336456 C345.78397045 143.893638 346.19647045 143.28391144 346.62147045 142.65570831 C351.01026342 134.74673766 350.88628224 123.99717506 348.5238142 115.42914581 C344.15547494 105.75956771 336.69394949 101.19946388 327.10584545 97.44867706 C321.84589485 95.630237 317.14389675 95.3626941 311.59223461 95.37879181 C310.69607992 95.37738166 309.79992523 95.37597151 308.87661433 95.37451863 C305.86739703 95.37086256 302.85822676 95.37420351 299.84900951 95.377388 C297.69393915 95.37599335 295.53886907 95.37409411 293.38379955 95.37172699 C288.73918723 95.36722804 284.09458374 95.36537386 279.44996929 95.36526489 C272.10474943 95.36412527 264.75957992 95.35129225 257.41437817 95.33570099 C255.55540539 95.33184171 255.55540539 95.33184171 253.65887761 95.32790446 C251.1244942 95.32263784 248.59011082 95.31735236 246.05572748 95.31204844 C228.95361058 95.2769288 211.85155609 95.25038727 194.74940014 95.25287628 C183.21577369 95.25446463 171.68231869 95.23843464 160.14874721 95.20216966 C154.04512765 95.18370434 147.94179437 95.17437204 141.83815289 95.18664551 C136.09573366 95.19808059 130.35382699 95.18638158 124.61147594 95.15701103 C122.50561735 95.15036975 120.39971185 95.15223841 118.29387188 95.1633091 C115.41484985 95.177187 112.5375568 95.16027809 109.65864086 95.13587189 C108.82866345 95.14722727 107.99868603 95.15858264 107.14355779 95.17028213 C101.00268929 95.0693114 97.24734978 93.13942216 92.37147045 89.50336456 C91.36342358 88.78535675 90.3553767 88.06734894 89.31678295 87.32758331 C83.8328548 83.17286212 78.40075662 78.96844228 73.04334545 74.65180206 C64.27032971 67.59747654 55.37444404 60.72410124 46.34925365 53.9957962 C40.11582405 49.33792358 34.00096564 44.53820235 27.90076733 39.70795441 C25.00216467 37.4247958 22.07183494 35.18241962 19.1410017 32.94086456 C17.37147045 31.50336456 17.37147045 31.50336456 15.8363142 29.92914581 C13.89466334 28.0392723 11.60525435 26.95851118 9.2503767 25.65570831 C6.69947163 24.09122391 4.56338438 22.20941003 2.34803295 20.20648956 C0.30509019 18.40109476 0.30509019 18.40109476 -2.29259205 16.55023956 C-3.20782642 15.87477081 -4.1230608 15.19930206 -5.06602955 14.50336456 C-5.93099049 13.88461456 -6.79595142 13.26586456 -7.6871233 12.62836456 C-9.62852955 10.50336456 -9.62852955 10.50336456 -10.1636858 7.50336456 C-9.10889467 1.59037486 -5.66264742 0.00368627 0 0 Z " fill="#F17ED8" transform="translate(98.62852954864502,46.49663543701172)"/>
<path d="M0 0 C6.39082548 0.13867976 10.65583672 5.41718129 15.13867188 9.45117188 C17.22587171 11.27507186 19.43282918 12.88952084 21.6875 14.5 C33.42772757 22.902818 45.07013424 31.39235282 56.27905273 40.49560547 C60.77649644 44.12720201 65.40888002 47.50249243 70.14135742 50.8190918 C75.93074617 54.90462351 81.49636624 59.26354669 87.07324219 63.63256836 C92.25103359 67.68820854 97.46992677 71.67310402 102.75390625 75.58984375 C105.92643259 77.97679214 109.0557639 80.4151954 112.18676758 82.85620117 C116.33321045 86.07678367 120.51021222 89.25708713 124.6875 92.4375 C125.60072021 93.13302979 126.51394043 93.82855957 127.45483398 94.54516602 C136.62040567 101.51881393 145.8283615 108.43520019 155.06640625 115.3125 C157.09319607 116.82451008 159.11581429 118.34214007 161.1328125 119.8671875 C162.59482706 120.97171888 164.06528119 122.06550515 165.5546875 123.1328125 C169.6713051 126.22539587 171.99791918 129.93225304 173.625 134.75 C174.19035801 139.00314415 174.1720508 143.2108376 174.14257812 147.49658203 C174.1495874 148.75607666 174.15659668 150.01557129 174.16381836 151.31323242 C174.1819548 154.7470951 174.17502588 158.18047367 174.16230202 161.61434412 C174.15212814 165.21767067 174.1615794 168.8209576 174.16784668 172.42428589 C174.17510853 178.47157181 174.16557208 184.51866183 174.14648438 190.56591797 C174.12469854 197.54843855 174.13178496 204.5304922 174.15379 211.51300156 C174.17196241 217.52089077 174.17449398 223.52863973 174.16403532 229.53654754 C174.15781296 233.11933347 174.15693022 236.70190011 174.17018127 240.28467178 C174.1839196 244.27746345 174.1648604 248.26945397 174.14257812 252.26220703 C174.15067505 253.44366302 174.15877197 254.62511902 174.16711426 255.84237671 C174.10267025 262.07307673 173.92138022 266.06484537 169.625 270.75 C166.4360128 272.3444936 164.16273387 272.12277034 160.625 271.75 C157.79488181 270.24178193 155.40829752 268.28263993 152.9375 266.25 C151.51498248 265.1303158 150.09049136 264.01313455 148.6640625 262.8984375 C147.9721582 262.3528418 147.28025391 261.80724609 146.56738281 261.24511719 C144.06522906 259.31912554 141.46526239 257.58621856 138.8125 255.875 C132.61579275 251.82817077 126.69758395 247.43243875 120.75463867 243.02392578 C116.07570322 239.55375779 111.37838311 236.11741964 106.625 232.75 C101.13682471 228.8590752 95.71929924 224.87811098 90.3125 220.875 C84.30018127 216.42569236 78.25085808 212.04162664 72.125 207.75 C62.84193818 201.24039615 53.70964233 194.53322696 44.625 187.75 C43.98481934 187.27256348 43.34463867 186.79512695 42.68505859 186.30322266 C24.59703403 172.76298814 11.3571793 158.57492401 0.625 138.75 C-0.02597656 137.61175781 -0.67695312 136.47351563 -1.34765625 135.30078125 C-8.57021231 120.2032035 -9.0976831 105.54387249 -8.96875 89.078125 C-8.96703518 86.73785463 -8.96710834 84.39758234 -8.96887207 82.05731201 C-8.96723034 77.18938447 -8.94872899 72.32192392 -8.91699219 67.45410156 C-8.87705243 61.21653546 -8.87298482 54.97957135 -8.88045502 48.7419014 C-8.88352129 43.92578618 -8.87142067 39.10980633 -8.85432434 34.29372406 C-8.84730256 31.99242755 -8.84416881 29.69111573 -8.84501648 27.38980865 C-8.84322031 24.18569503 -8.82186149 20.98230828 -8.79492188 17.77832031 C-8.79785248 16.83182617 -8.80078308 15.88533203 -8.80380249 14.91015625 C-8.71487897 8.06091479 -7.58347893 1.68521754 0 0 Z " fill="#EF85E1" transform="translate(89.375,197.25)"/>
<path d="M0 0 C7.26 0 14.52 0 22 0 C22.33 14.52 22.66 29.04 23 44 C25.97 41.36 28.94 38.72 32 36 C44.75101203 31.36326835 54.95691951 32.41658072 67.328125 38.0625 C75.75228031 42.83839907 82.14657221 50.76263207 85 60 C88.00954194 74.16736749 86.71934831 87.62496266 79.71875 100.32421875 C75.81177898 106.28689255 70.15868761 109.63586139 64 113 C63.37609375 113.36351562 62.7521875 113.72703125 62.109375 114.1015625 C54.59535871 117.72318296 43.84760368 117.11867777 35.8515625 115.2734375 C30.83167933 113.41924642 27.42618672 111.08931963 24 107 C23.505 106.505 23.505 106.505 23 106 C22.67 108.64 22.34 111.28 22 114 C14.74 114 7.48 114 0 114 C0 76.38 0 38.76 0 0 Z " fill="#F9F8F9" transform="translate(1376,164)"/>
<path d="M0 0 C64.67653002 0 64.67653002 0 75.6875 10.1875 C83.71603542 18.78426509 86.32097939 27.87501522 85.9375 39.4375 C85.34875008 46.27658332 83.80286714 51.30608964 80 57 C79.59007812 57.64453125 79.18015625 58.2890625 78.7578125 58.953125 C74.53917722 64.69446296 68.39031544 67.22197593 62 70 C61.17628906 70.36480469 60.35257813 70.72960937 59.50390625 71.10546875 C54.42260746 72.92078454 49.4272941 73.12135971 44.0703125 73.09765625 C42.90773926 73.09515869 41.74516602 73.09266113 40.54736328 73.09008789 C39.0879834 73.08098389 37.62860352 73.07187988 36.125 73.0625 C31.46375 73.041875 26.8025 73.02125 22 73 C22 85.54 22 98.08 22 111 C14.74 111 7.48 111 0 111 C0 74.37 0 37.74 0 0 Z " fill="#FAFAFA" transform="translate(614,167)"/>
<path d="M0 0 C3.40887633 2.27258422 5.70527727 4.61830334 8 8 C10.88756268 6.68804217 12.9617963 5.24517975 15.25 3.0625 C21.79246752 -2.69374825 30.05551979 -4.33245564 38.59765625 -4.21875 C46.73578154 -3.47771745 53.57610515 0.26604361 59.1875 6.125 C65.52960537 14.11393135 65.41962004 23.66915079 65.29296875 33.4453125 C65.28872391 34.69633759 65.28447906 35.94736267 65.28010559 37.23629761 C65.26625204 40.52762875 65.23940206 43.81850082 65.20599365 47.10968018 C65.1750482 50.48191778 65.16154853 53.85422318 65.14648438 57.2265625 C65.11355528 63.81790771 65.06184541 70.40886525 65 77 C58.07 77 51.14 77 44 77 C43.94392578 71.85083984 43.94392578 71.85083984 43.88671875 66.59765625 C43.84043036 63.25148357 43.78922321 59.90541951 43.73754883 56.55932617 C43.70441454 54.24428986 43.67634728 51.929175 43.65356445 49.61401367 C43.6198069 46.27488922 43.56747969 42.93647719 43.51171875 39.59765625 C43.50532883 38.57229263 43.4989389 37.54692902 43.49235535 36.49049377 C43.36744033 30.30387987 42.75447079 24.62579704 40 19 C35.57440125 15.06613444 30.77352937 15.45247788 25.109375 15.57421875 C20.54635667 16.19905417 18.97114032 17.54705314 16 21 C13.80097174 24.29854238 13.73590207 25.36420456 13.68115234 29.20581055 C13.66128265 30.26668381 13.64141296 31.32755707 13.62094116 32.420578 C13.60938995 33.56440445 13.59783875 34.7082309 13.5859375 35.88671875 C13.56657135 37.05886429 13.5472052 38.23100983 13.5272522 39.43867493 C13.46739803 43.1882089 13.42104717 46.93777348 13.375 50.6875 C13.33682564 53.22722705 13.29777424 55.76694107 13.2578125 58.30664062 C13.1616915 64.53765486 13.07768168 70.7687297 13 77 C5.74 77 -1.52 77 -9 77 C-9.01458252 75.45618652 -9.02916504 73.91237305 -9.04418945 72.32177734 C-9.1022319 66.58521551 -9.17946538 60.84904374 -9.26245117 55.11279297 C-9.29567236 52.63173765 -9.32371298 50.15060727 -9.34643555 47.66943359 C-9.3800322 44.09960999 -9.43235283 40.53047255 -9.48828125 36.9609375 C-9.49467117 35.85446869 -9.5010611 34.74799988 -9.50764465 33.60800171 C-9.61386603 28.02369176 -9.78431576 23.78721468 -13 19 C-16.58454416 15.64671675 -19.53110675 15.13857484 -24.3125 14.6875 C-30.00015537 15.16950469 -33.31513442 17.0892251 -37.06665039 21.34375 C-40.14504606 26.08055331 -39.60330927 31.49835106 -39.609375 36.9609375 C-39.62591125 38.10664215 -39.64244751 39.2523468 -39.65948486 40.43276978 C-39.70794148 44.08023452 -39.72933168 47.72728236 -39.75 51.375 C-39.77816147 53.85288553 -39.80808913 56.33075166 -39.83984375 58.80859375 C-39.91370055 64.87236152 -39.96329006 70.93589816 -40 77 C-47.26 77 -54.52 77 -62 77 C-62 50.93 -62 24.86 -62 -2 C-55.07 -2 -48.14 -2 -41 -2 C-40.67 0.97 -40.34 3.94 -40 7 C-39.5153125 6.52949219 -39.030625 6.05898437 -38.53125 5.57421875 C-27.07714779 -5.06488003 -14.02403562 -6.52072994 0 0 Z " fill="#F9F9F9" transform="translate(1296,201)"/>
<path d="M0 0 C7.39537997 5.11266226 13.02721599 12.20039415 15.6875 20.8125 C16.6875 26.8125 16.6875 26.8125 16.6875 41.8125 C-2.7825 41.8125 -22.2525 41.8125 -42.3125 41.8125 C-39.4071741 51.54080792 -39.4071741 51.54080792 -32.4375 57.625 C-26.13900189 59.9784345 -17.93462035 60.2743423 -11.69921875 57.7578125 C-8.88802808 56.02073307 -6.64637543 54.14637543 -4.3125 51.8125 C-2.15771484 51.58544922 -2.15771484 51.58544922 0.4765625 51.6171875 C1.41757812 51.62363281 2.35859375 51.63007813 3.328125 51.63671875 C4.80539062 51.66185547 4.80539062 51.66185547 6.3125 51.6875 C7.30507813 51.69652344 8.29765625 51.70554688 9.3203125 51.71484375 C11.77628134 51.73845884 14.23177168 51.77139201 16.6875 51.8125 C13.54561028 61.63260552 7.79700283 68.5068368 -1.30859375 73.43359375 C-13.46600991 78.48844405 -27.39175981 78.79725211 -39.9375 74.875 C-50.41013562 70.50831801 -57.59718451 62.89255604 -62.2734375 52.72265625 C-65.98036541 42.7751662 -66.01737251 28.94619532 -62.3515625 18.9765625 C-56.30099125 6.37499682 -47.80052858 -0.35579615 -35.0625 -5.5 C-22.80757512 -7.74673623 -10.92120496 -6.13120278 0 0 Z " fill="#F9F9F9" transform="translate(891.3125,203.1875)"/>
<path d="M0 0 C6.93 0 13.86 0 21 0 C21 14.85 21 29.7 21 45 C21.66 45 22.32 45 23 45 C23.23460937 44.40445313 23.46921875 43.80890625 23.7109375 43.1953125 C26.66433311 38.16559028 33.51886314 35.1910391 39 33.625 C40.32588495 33.37358469 41.66079201 33.16644076 43 33 C43.74636719 32.90589844 44.49273438 32.81179687 45.26171875 32.71484375 C53.85131476 32.17540052 62.29286991 35.12508278 69.0625 40.375 C76.20900801 50.05736569 77.29690824 58.23674971 77.1953125 70.15234375 C77.1924826 71.40761368 77.18965271 72.66288361 77.18673706 73.95619202 C77.17747127 77.27214347 77.15954299 80.58781301 77.1373291 83.90368652 C77.11676595 87.29579245 77.10771309 90.68792766 77.09765625 94.08007812 C77.07565121 100.7201392 77.04114964 107.36003109 77 114 C69.74 114 62.48 114 55 114 C54.98598145 111.63884033 54.98598145 111.63884033 54.97167969 109.22998047 C54.93176329 103.38154964 54.86599854 97.53364391 54.79248047 91.68554688 C54.76428068 89.15599317 54.74306127 86.62635151 54.72900391 84.09667969 C54.70756171 80.45722454 54.6609014 76.81882585 54.609375 73.1796875 C54.60814636 72.05134491 54.60691772 70.92300232 54.60565186 69.76046753 C54.4901079 63.54546556 54.1867464 59.71766731 50 55 C46.05218969 51.41108154 41.83136934 51.49717009 36.72265625 51.6484375 C31.41972427 52.33317764 28.26576936 54.63430148 24.625 58.5625 C22.27561253 62.08658121 21.86761944 64.79358308 21.79467773 68.93041992 C21.77473251 69.93123093 21.75478729 70.93204193 21.73423767 71.96318054 C21.71752518 73.04138565 21.70081268 74.11959076 21.68359375 75.23046875 C21.66281265 76.33602615 21.64203156 77.44158356 21.62062073 78.5806427 C21.55517668 82.1161979 21.49626397 85.65182806 21.4375 89.1875 C21.3943099 91.58269008 21.35069546 93.97787255 21.30664062 96.37304688 C21.19950048 102.24862088 21.09821832 108.12427036 21 114 C14.07 114 7.14 114 0 114 C0 76.38 0 38.76 0 0 Z " fill="#FAFAFB" transform="translate(1050,164)"/>
<path d="M0 0 C7.26 0 14.52 0 22 0 C22.03738281 3.5165625 22.07476563 7.033125 22.11328125 10.65625 C22.15955009 14.07851222 22.21076439 17.50066739 22.26245117 20.92285156 C22.29561573 23.29322758 22.32367378 25.66368095 22.34643555 28.03417969 C22.38013688 31.45020376 22.43246209 34.8655243 22.48828125 38.28125 C22.49467117 39.33364868 22.5010611 40.38604736 22.50764465 41.47033691 C22.6509663 48.71407783 23.13111633 55.13111633 28.5 60.5 C34.08086276 62.89179833 39.57542023 63.23649552 45.34765625 61.15234375 C50.51535215 58.30286657 53.00129875 54.55029821 55 49 C55.57030816 45.23556844 55.60474282 41.52153865 55.609375 37.71875 C55.62591125 36.66465942 55.64244751 35.61056885 55.65948486 34.52453613 C55.7077742 31.18296368 55.72929404 27.84184572 55.75 24.5 C55.77817553 22.2239357 55.80810515 19.9478924 55.83984375 17.671875 C55.91680617 12.11437808 55.9575054 6.55829306 56 1 C62.93 1 69.86 1 77 1 C77 26.74 77 52.48 77 79 C70.07 79 63.14 79 56 79 C55.505 75.04 55.505 75.04 55 71 C54.05125 71.9075 53.1025 72.815 52.125 73.75 C44.25474096 80.35288134 35.9372981 81.90476086 25.8515625 81.453125 C20.3980831 80.81153919 16.47961253 79.10324303 12 76 C11.40703125 75.60425781 10.8140625 75.20851563 10.203125 74.80078125 C3.89565459 70.10140354 1.78999511 64.25677961 0.39703369 56.8838501 C-0.32121611 51.66685013 -0.24335406 46.46799604 -0.1953125 41.2109375 C-0.1924826 40.02650055 -0.18965271 38.8420636 -0.18673706 37.62173462 C-0.17562395 33.87271631 -0.1505358 30.12394499 -0.125 26.375 C-0.11495874 23.81901389 -0.1058349 21.263024 -0.09765625 18.70703125 C-0.07571367 12.47126033 -0.04124541 6.23567191 0 0 Z " fill="#F9F8F9" transform="translate(1141,199)"/>
<path d="M0 0 C29.37 0 58.74 0 89 0 C89 6.27 89 12.54 89 19 C78.11 19 67.22 19 56 19 C56 49.36 56 79.72 56 111 C48.41 111 40.82 111 33 111 C33 80.64 33 50.28 33 19 C22.11 19 11.22 19 0 19 C0 12.73 0 6.46 0 0 Z " fill="#F7F7F8" transform="translate(952,167)"/>
<path d="M0 0 C21.4743341 -2.21686262 21.4743341 -2.21686262 26.95458984 1.22900391 C29.91930108 4.41332338 31.56510613 8.20515529 33.18798828 12.19970703 C34.41318355 14.91605998 36.18060581 17.08224392 38.0625 19.375 C38.63097656 20.08398438 39.19945312 20.79296875 39.78515625 21.5234375 C40.18605469 22.01070312 40.58695313 22.49796875 41 23 C44.01022631 20.4961669 45.65518201 17.89366142 47.390625 14.453125 C53.0878829 3.76605859 53.0878829 3.76605859 58 0 C65.75493195 -2.31660804 74.10980431 -1.19139157 82 0 C80.71702977 2.68384697 79.31583582 5.11726949 77.6015625 7.546875 C77.1274292 8.21952393 76.6532959 8.89217285 76.16479492 9.58520508 C75.6566626 10.2995874 75.14853027 11.01396973 74.625 11.75 C74.10204346 12.49209717 73.57908691 13.23419434 73.0402832 13.9987793 C70.26972853 17.90580236 67.44367788 21.75356713 64.50390625 25.53515625 C63.94815918 26.25413086 63.39241211 26.97310547 62.81982422 27.71386719 C61.7480488 29.09181836 60.66531431 30.46132873 59.57080078 31.82128906 C56.80389129 35.0250239 56.80389129 35.0250239 56.22680664 38.98852539 C57.03124386 41.08128138 57.95784434 42.65816818 59.265625 44.4765625 C59.73758301 45.13897949 60.20954102 45.80139648 60.69580078 46.48388672 C61.20868652 47.1904541 61.72157227 47.89702148 62.25 48.625 C62.77706543 49.36121582 63.30413086 50.09743164 63.84716797 50.85595703 C65.55818616 53.24212559 67.2783743 55.62147571 69 58 C70.20591875 59.67173826 71.41164767 61.34361347 72.6171875 63.015625 C74.34553374 65.41146065 76.0751721 67.80629527 77.80957031 70.19775391 C78.32874023 70.91366699 78.84791016 71.62958008 79.3828125 72.3671875 C80.06947998 73.31247314 80.06947998 73.31247314 80.77001953 74.27685547 C81.87812807 75.82926318 82.94200855 77.41301282 84 79 C62.95587797 81.69765137 62.95587797 81.69765137 56.71875 77.44433594 C53.0113365 73.52258759 50.50178591 68.98275184 48.13476562 64.16357422 C46.98364311 61.96881352 45.67787563 60.05525702 44.203125 58.06640625 C42 55 42 55 42 53 C37.23782609 57.34145554 33.82784879 62.35288726 30.25 67.6875 C29.66089844 68.55439453 29.07179688 69.42128906 28.46484375 70.31445312 C25.53820543 74.54168141 25.53820543 74.54168141 23 79 C14.42 79 5.84 79 -3 79 C0.76714781 73.34927828 4.40883253 68.07150252 8.6875 62.875 C12.96850467 57.57590595 17.20462463 52.24728804 21.3125 46.8125 C21.79871826 46.18907715 22.28493652 45.5656543 22.78588867 44.92333984 C25.29025257 41.83192177 25.29025257 41.83192177 25.80712891 38.07055664 C24.84568296 35.60412497 23.58684188 33.82628216 21.97265625 31.7265625 C21.3494751 30.90784668 20.72629395 30.08913086 20.08422852 29.24560547 C19.41705811 28.38080566 18.7498877 27.51600586 18.0625 26.625 C16.69679706 24.8289758 15.33221903 23.03209568 13.96875 21.234375 C13.29585937 20.34943359 12.62296875 19.46449219 11.9296875 18.55273438 C9.26290987 15.02492226 6.64576779 11.46429128 4.0625 7.875 C3.43516968 7.01575928 3.43516968 7.01575928 2.79516602 6.13916016 C0 2.2371108 0 2.2371108 0 0 Z " fill="#F9F8F9" transform="translate(743,199)"/>
<path d="M0 0 C7.26 0 14.52 0 22 0 C22 37.62 22 75.24 22 114 C14.74 114 7.48 114 0 114 C0 76.38 0 38.76 0 0 Z " fill="#F8F7F8" transform="translate(920,164)"/>
<path d="M0 0 C5.19759493 3.31154782 9.03929725 8.31747737 10.8515625 14.1796875 C11.85108493 23.38581512 11.4734825 31.48410848 5.8515625 39.1796875 C3.2890625 41.6796875 3.2890625 41.6796875 0.8515625 43.1796875 C0.28050781 43.53160156 -0.29054688 43.88351562 -0.87890625 44.24609375 C-6.44558992 46.53600321 -13.98352264 46.24958796 -19.6328125 44.33984375 C-25.42147903 41.00799499 -30.1094324 35.66777605 -32.0234375 29.2421875 C-32.0646875 28.2315625 -32.1059375 27.2209375 -32.1484375 26.1796875 C-32.19742187 25.50164062 -32.24640625 24.82359375 -32.296875 24.125 C-32.61337882 17.08887655 -31.22742781 10.553452 -26.8984375 4.8671875 C-19.2407737 -2.61643848 -10.02376717 -4.33125742 0 0 Z " fill="#221021" transform="translate(1429.1484375,216.8203125)"/>
<path d="M0 0 C6.93 0 13.86 0 21 0 C21 25.74 21 51.48 21 78 C14.07 78 7.14 78 0 78 C0 52.26 0 26.52 0 0 Z " fill="#FDFCFD" transform="translate(711,200)"/>
<path d="M0 0 C4.62 -0.103125 9.24 -0.20625 14 -0.3125 C15.44117188 -0.35802002 16.88234375 -0.40354004 18.3671875 -0.45043945 C25.83832044 -0.531037 31.36482486 -0.23676647 37 5 C40.13743582 8.62011826 41.7731375 11.94122617 42.1640625 16.78125 C41.7454895 22.4419515 39.49657984 27.46504632 35.5625 31.5 C30.7017489 34.34531772 27.04212992 35.24696009 21.38671875 35.1953125 C20.26225342 35.19031738 19.13778809 35.18532227 17.97924805 35.18017578 C16.56297119 35.16196777 15.14669434 35.14375977 13.6875 35.125 C9.170625 35.08375 4.65375 35.0425 0 35 C0 23.45 0 11.9 0 0 Z " fill="#210F1F" transform="translate(636,186)"/>
<path d="M0 0 C3.69940845 4.08881986 4.70667199 7.50399412 4.453125 12.8828125 C3.69761452 16.41287007 1.83752317 17.91914968 -1 20 C-5.14143272 22.3505429 -9.34362768 22.5962428 -14 22 C-18.5613976 20.13397371 -20.74794145 17.33729795 -23 13 C-23.61864537 7.96245917 -23.04185998 5.05581331 -20 1 C-14.93977016 -5.1602798 -6.1497768 -4.0998512 0 0 Z " fill="#F7F6F7" transform="translate(731,165)"/>
<path d="M0 0 C3.92545149 2.74940529 5.74186532 5.48101909 7.625 9.875 C7.625 11.525 7.625 13.175 7.625 14.875 C-4.915 14.875 -17.455 14.875 -30.375 14.875 C-29.39529037 8.01703262 -28.43805452 4.83243195 -23.5625 0.125 C-16.03479824 -4.17654387 -7.53881453 -4.25374451 0 0 Z " fill="#271526" transform="translate(879.375,216.125)"/>
</svg>
